<svg width="20" height="25.56" viewBox="0 0 42 52" fill="none" xmlns="http://www.w3.org/2000/svg">
<path d="M39.5473 3.32914V48.0283C39.5473 48.9392 38.8077 49.6787 37.8968 49.6787H3.65043C2.73956 49.6787 2 48.9392 2 48.0283V3.32914C2 2.41827 2.73956 1.67871 3.65043 1.67871H37.8968C38.8077 1.67871 39.5473 2.41827 39.5473 3.32914Z" stroke="#1B88FF" stroke-width="3" stroke-miterlimit="10"/>
<path d="M7.34326 37.3609L9.36696 39.2082L13.1965 35.1921" stroke="#00E89B" stroke-width="3" stroke-linecap="round" stroke-linejoin="round"/>
<path d="M15.75 37.5374H34.43" stroke="#C6C6C6" stroke-width="3" stroke-miterlimit="10"/>
<path d="M7.34326 29.1559L9.36696 31.0031L13.1965 26.9871" stroke="#00E89B" stroke-width="3" stroke-linecap="round" stroke-linejoin="round"/>
<path d="M15.75 29.332H34.43" stroke="#C6C6C6" stroke-width="3" stroke-miterlimit="10"/>
<path d="M7.34326 20.9501L9.36696 22.7973L13.1965 18.7812" stroke="#00E89B" stroke-width="3" stroke-linecap="round" stroke-linejoin="round"/>
<path d="M15.75 21.127H34.43" stroke="#C6C6C6" stroke-width="3" stroke-miterlimit="10"/>
<path d="M7.34326 12.745L9.36696 14.5922L13.1965 10.5762" stroke="#00E89B" stroke-width="3" stroke-linecap="round" stroke-linejoin="round"/>
<path d="M15.75 12.9214H34.43" stroke="#C6C6C6" stroke-width="3" stroke-miterlimit="10"/>
</svg>
